<svg width="311" height="51" viewBox="0 0 311 51" fill="none" xmlns="http://www.w3.org/2000/svg">
<path d="M66.6919 14.3926C70.4015 13.4652 74.2256 12.7606 78.1641 12.2788L78.9048 16.5786L71.1001 17.4277L71.3169 23.1909L77.9473 22.9019L77.7666 27.2017L71.3892 27.0029L71.1001 36L67.2158 36.3252L66.6919 14.3926ZM94.478 37.3008C89.5158 36.7949 85.6255 36.0422 82.8071 35.0425C82.2892 34.8498 81.946 33.7417 81.7773 31.7183C81.6328 29.8634 81.7894 28.2555 82.2471 26.8945C82.4398 26.3285 82.6686 26.0153 82.9336 25.9551C84.0658 25.654 85.2581 25.4372 86.5107 25.3047L90.2686 24.8892L90.1963 22.3418C88.8835 22.0889 87.5767 21.8901 86.2759 21.7456C84.9871 21.589 83.7044 21.4084 82.4277 21.2036L83.3853 17.2471L86.4385 17.6987C89.2327 18.1082 91.4549 18.6081 93.105 19.1982C93.8999 19.4873 94.2974 20.0715 94.2974 20.9507L94.3696 30.8511L90.5215 31.2305L90.4131 28.1411L89.3833 28.3398C88.2271 28.5326 87.125 28.7734 86.0771 29.0625C85.9447 29.7008 85.8784 30.2308 85.8784 30.6523C85.8784 31.2666 85.9025 31.7424 85.9507 32.0796C87.6489 32.465 90.2686 32.8564 93.8096 33.2539L95.291 33.4165L94.478 37.3008ZM100.024 35.1509C99.362 34.9341 98.9766 34.4342 98.8682 33.6514C98.6273 31.9893 98.5068 30.4717 98.5068 29.0986C98.5068 27.7135 98.5189 26.6898 98.543 26.0273C98.5791 25.3529 98.6273 24.7025 98.6875 24.0762C98.9043 21.4626 99.1994 19.9329 99.5728 19.4873C99.7655 19.2464 100.079 19.0658 100.512 18.9453C100.958 18.8128 101.548 18.6803 102.283 18.5479C103.029 18.4033 103.812 18.2708 104.631 18.1504C105.462 18.0179 106.275 17.8975 107.07 17.7891C107.877 17.6807 108.564 17.5843 109.13 17.5L109.762 21.5649L108.371 21.7095C105.794 21.9744 104.15 22.1973 103.439 22.3779C103.246 23.1247 103.114 24.1725 103.042 25.5215C102.969 26.8704 102.933 27.8581 102.933 28.4844C102.933 30.0381 102.993 31.2004 103.114 31.9712L110.015 33.2539L108.949 37.1382C107.962 36.9816 107.034 36.813 106.167 36.6323L103.981 36.1807C102.006 35.7471 100.687 35.4038 100.024 35.1509ZM112.996 23.9678C112.996 22.3538 113.165 21.4204 113.502 21.1675C113.839 20.9146 114.219 20.6616 114.64 20.4087C115.062 20.1437 115.525 19.8848 116.031 19.6318C116.537 19.3789 117.061 19.138 117.603 18.9092C118.157 18.6803 118.699 18.4756 119.229 18.2949C120.361 17.9095 121.204 17.7168 121.758 17.7168C122.324 17.7168 122.782 17.7469 123.131 17.8071C123.481 17.8553 123.8 17.9396 124.089 18.0601C124.751 18.3371 125.125 18.7406 125.209 19.2705C125.606 21.7878 125.805 24.7868 125.805 28.2676V29.3335L117.151 29.4419V31.7905C118.091 32.0194 119.211 32.2301 120.512 32.4229L123.619 32.9287C124.414 33.0492 125.227 33.1877 126.058 33.3442L124.992 37.3008C121.68 36.7829 118.163 35.9458 114.441 34.7896C113.586 34.5125 113.147 34.0127 113.123 33.29L112.996 23.9678ZM121.74 25.4492C121.74 24.3171 121.626 23.1247 121.397 21.8721C120.915 21.8721 120.53 21.8962 120.241 21.9443C119.952 21.9925 119.663 22.0588 119.374 22.1431C119.084 22.2274 118.789 22.3237 118.488 22.4321C117.778 22.6851 117.308 22.9019 117.079 23.0825V26.3345L121.74 25.8286V25.4492ZM139.084 19.1621L143.474 18.4214V22.0527L143.366 26.4248L148.551 25.1602C149.285 22.8356 149.653 20.7279 149.653 18.8369C149.653 18.4395 149.629 18.0661 149.581 17.7168C147.545 17.0785 143.528 16.6388 137.53 16.3979L138.217 12.1343C143.36 12.339 147.816 12.8328 151.586 13.6157C151.911 13.688 152.429 14.1637 153.14 15.043C153.838 15.9102 154.2 16.5184 154.224 16.8677C154.26 17.217 154.278 17.5602 154.278 17.8975V18.9092C154.278 20.4749 153.88 22.4984 153.085 24.9795C152.652 26.3285 152.224 27.1956 151.803 27.5811C151.61 27.7617 151.435 27.8942 151.279 27.9785L149.508 28.5566C151.267 30.4717 152.893 32.5734 154.386 34.8618L150.628 37.4092L146.112 29.46L143.474 29.6045L143.33 36L139.409 36.3252L139.084 19.1621ZM158.054 23.9678C158.054 22.3538 158.222 21.4204 158.56 21.1675C158.897 20.9146 159.276 20.6616 159.698 20.4087C160.119 20.1437 160.583 19.8848 161.089 19.6318C161.595 19.3789 162.119 19.138 162.661 18.9092C163.215 18.6803 163.757 18.4756 164.287 18.2949C165.419 17.9095 166.262 17.7168 166.816 17.7168C167.382 17.7168 167.84 17.7469 168.189 17.8071C168.538 17.8553 168.857 17.9396 169.146 18.0601C169.809 18.3371 170.182 18.7406 170.267 19.2705C170.664 21.7878 170.863 24.7868 170.863 28.2676V29.3335L162.209 29.4419V31.7905C163.148 32.0194 164.269 32.2301 165.569 32.4229L168.677 32.9287C169.472 33.0492 170.285 33.1877 171.116 33.3442L170.05 37.3008C166.738 36.7829 163.221 35.9458 159.499 34.7896C158.644 34.5125 158.204 34.0127 158.18 33.29L158.054 23.9678ZM166.798 25.4492C166.798 24.3171 166.683 23.1247 166.455 21.8721C165.973 21.8721 165.587 21.8962 165.298 21.9443C165.009 21.9925 164.72 22.0588 164.431 22.1431C164.142 22.2274 163.847 22.3237 163.546 22.4321C162.835 22.6851 162.366 22.9019 162.137 23.0825V26.3345L166.798 25.8286V25.4492ZM176.662 35.1509C176 34.9341 175.614 34.4342 175.506 33.6514C175.265 31.9893 175.145 30.4717 175.145 29.0986C175.145 27.7135 175.157 26.6898 175.181 26.0273C175.217 25.3529 175.265 24.7025 175.325 24.0762C175.542 21.4626 175.837 19.9329 176.21 19.4873C176.403 19.2464 176.716 19.0658 177.15 18.9453C177.596 18.8128 178.186 18.6803 178.92 18.5479C179.667 18.4033 180.45 18.2708 181.269 18.1504C182.1 18.0179 182.913 17.8975 183.708 17.7891C184.515 17.6807 185.201 17.5843 185.768 17.5L186.4 21.5649L185.009 21.7095C182.431 21.9744 180.787 22.1973 180.077 22.3779C179.884 23.1247 179.751 24.1725 179.679 25.5215C179.607 26.8704 179.571 27.8581 179.571 28.4844C179.571 30.0381 179.631 31.2004 179.751 31.9712L186.653 33.2539L185.587 37.1382C184.599 36.9816 183.672 36.813 182.805 36.6323L180.619 36.1807C178.643 35.7471 177.325 35.4038 176.662 35.1509ZM194.187 25.3047C194.187 28.2074 194.337 30.7246 194.638 32.8564L198.197 32.6758C198.848 30.0983 199.173 27.5811 199.173 25.124C199.173 24.1364 199.107 23.2572 198.974 22.4863C198.251 22.125 195.698 21.9443 191.314 21.9443H190.393C190.14 21.9443 189.863 21.9564 189.562 21.9805L190.338 17.7891C190.543 17.777 190.73 17.765 190.898 17.7529C191.079 17.7288 191.26 17.7168 191.44 17.7168L191.982 17.6807C192.163 17.6807 192.669 17.6807 193.5 17.6807C195.885 17.6807 198.498 17.9998 201.341 18.6382C202.244 18.867 202.798 19.2705 203.003 19.8486C203.316 20.7399 203.473 22.1912 203.473 24.2026C203.473 27.8761 202.913 31.4292 201.792 34.8618C201.696 35.175 201.582 35.4399 201.449 35.6567C201.329 35.8735 201.112 36.012 200.799 36.0723C200.486 36.1445 200.118 36.2108 199.697 36.271C199.275 36.3312 198.86 36.3854 198.45 36.4336C197.559 36.5179 196.945 36.5601 196.607 36.5601C196.27 36.5601 195.909 36.554 195.523 36.542C195.138 36.542 194.716 36.5299 194.259 36.5059C193.054 36.4456 192.241 36.3372 191.82 36.1807C191.398 36.0361 191.109 35.7832 190.953 35.4219C190.808 35.0605 190.664 34.4824 190.519 33.6875C190.182 31.8327 190.013 29.7189 190.013 27.3462C190.013 26.4429 190.037 25.5456 190.085 24.6543L194.187 23.8413V25.3047ZM212.723 32.188C214.312 32.188 215.559 32.1278 216.462 32.0073L216.39 24.311L220.419 23.5703C220.467 25.8949 220.503 27.8822 220.527 29.5322C220.563 31.1702 220.594 32.5493 220.618 33.6694C220.642 34.7896 220.66 35.6808 220.672 36.3433L220.708 37.8789C220.708 38.2282 220.708 38.457 220.708 38.5654V38.7822C220.708 39.3965 220.25 40.0288 219.335 40.6792C216.541 42.6424 213.692 44.3888 210.79 45.9185L208.585 41.9619C212.524 40.1191 215.264 38.7521 216.806 37.8608L216.535 33.7417L213.951 36H210.952C210.097 36 209.531 35.7109 209.254 35.1328L209.001 34.5908C207.905 31.9531 207.357 28.5807 207.357 24.4736C207.357 22.125 207.532 20.6436 207.881 20.0293C208.013 19.7884 208.405 19.5716 209.055 19.3789C209.718 19.1742 210.543 18.9574 211.53 18.7285C212.53 18.4876 213.542 18.2648 214.565 18.0601C215.589 17.8553 216.613 17.6626 217.637 17.4819L220.618 16.9399L221.503 21.0952L215.812 21.9805C213.716 22.3177 212.416 22.5767 211.91 22.7573C211.789 23.2391 211.729 23.9076 211.729 24.7627C211.729 27.846 212.06 30.3211 212.723 32.188ZM225.532 18.7285L229.38 18.2407L230.012 20.9868L233.192 18.2407H237.636C237.865 18.2407 238.184 18.4154 238.594 18.7646C239.28 19.3307 239.624 19.8366 239.624 20.2822L238.991 36.0361L234.962 36.3613L234.89 22.4141C234.746 22.3659 234.547 22.3418 234.294 22.3418C234.041 22.3418 233.806 22.3538 233.589 22.3779C233.385 22.402 233.162 22.4382 232.921 22.4863C232.355 22.5827 231.891 22.6971 231.53 22.8296L230.193 23.3174L229.705 35.8555L225.857 36.1445L225.532 18.7285ZM249.163 8.81006C249.295 9.27979 249.361 9.80973 249.361 10.3999C249.361 10.978 249.343 11.4718 249.307 11.8813C249.271 12.2788 249.229 12.6522 249.181 13.0015C249.06 13.7603 248.922 14.2782 248.765 14.5552L244.61 14.3745C244.815 13.3146 244.917 11.6224 244.917 9.29785L249.163 8.81006ZM249.018 17.9155C249.078 19.1561 249.108 20.1979 249.108 21.041C249.108 21.8841 249.09 22.8717 249.054 24.0039L248.639 36L244.791 36.3252L244.429 18.4937L249.018 17.9155ZM253.968 13.9409L258.376 13.0918V18.7646L262.911 17.9155L263.254 22.0166L258.449 22.3779L258.105 32.1519C258.997 32.4289 259.768 32.6457 260.418 32.8022C262.044 33.1877 263.038 33.4285 263.399 33.5249L262.441 37.3008C259.768 36.7106 257.425 36.0301 255.414 35.2593C254.595 34.9582 254.185 34.4162 254.185 33.6333L253.968 13.9409ZM271.637 8.81006C271.77 9.27979 271.836 9.80973 271.836 10.3999C271.836 10.978 271.818 11.4718 271.782 11.8813C271.746 12.2788 271.703 12.6522 271.655 13.0015C271.535 13.7603 271.396 14.2782 271.24 14.5552L267.084 14.3745C267.289 13.3146 267.392 11.6224 267.392 9.29785L271.637 8.81006ZM271.493 17.9155C271.553 19.1561 271.583 20.1979 271.583 21.041C271.583 21.8841 271.565 22.8717 271.529 24.0039L271.113 36L267.265 36.3252L266.904 18.4937L271.493 17.9155ZM280.688 25.3047C280.688 28.2074 280.839 30.7246 281.14 32.8564L284.699 32.6758C285.35 30.0983 285.675 27.5811 285.675 25.124C285.675 24.1364 285.609 23.2572 285.476 22.4863C284.753 22.125 282.2 21.9443 277.816 21.9443H276.895C276.642 21.9443 276.365 21.9564 276.063 21.9805L276.84 17.7891C277.045 17.777 277.232 17.765 277.4 17.7529C277.581 17.7288 277.762 17.7168 277.942 17.7168L278.484 17.6807C278.665 17.6807 279.171 17.6807 280.002 17.6807C282.387 17.6807 285 17.9998 287.843 18.6382C288.746 18.867 289.3 19.2705 289.505 19.8486C289.818 20.7399 289.975 22.1912 289.975 24.2026C289.975 27.8761 289.415 31.4292 288.294 34.8618C288.198 35.175 288.084 35.4399 287.951 35.6567C287.831 35.8735 287.614 36.012 287.301 36.0723C286.988 36.1445 286.62 36.2108 286.199 36.271C285.777 36.3312 285.362 36.3854 284.952 36.4336C284.061 36.5179 283.447 36.5601 283.109 36.5601C282.772 36.5601 282.411 36.554 282.025 36.542C281.64 36.542 281.218 36.5299 280.761 36.5059C279.556 36.4456 278.743 36.3372 278.322 36.1807C277.9 36.0361 277.611 35.7832 277.455 35.4219C277.31 35.0605 277.166 34.4824 277.021 33.6875C276.684 31.8327 276.515 29.7189 276.515 27.3462C276.515 26.4429 276.539 25.5456 276.587 24.6543L280.688 23.8413V25.3047ZM294.365 18.7285L298.213 18.2407L298.845 20.9868L302.025 18.2407H306.469C306.698 18.2407 307.017 18.4154 307.427 18.7646C308.113 19.3307 308.457 19.8366 308.457 20.2822L307.824 36.0361L303.795 36.3613L303.723 22.4141C303.579 22.3659 303.38 22.3418 303.127 22.3418C302.874 22.3418 302.639 22.3538 302.422 22.3779C302.218 22.402 301.995 22.4382 301.754 22.4863C301.188 22.5827 300.724 22.6971 300.363 22.8296L299.026 23.3174L298.538 35.8555L294.69 36.1445L294.365 18.7285Z" fill="#EA2D5C"/>
<path d="M25.5 4.25C13.7828 4.25 4.25 13.7828 4.25 25.5C4.25 37.2172 13.7828 46.75 25.5 46.75C37.2172 46.75 46.75 37.2172 46.75 25.5C46.75 13.7828 37.2172 4.25 25.5 4.25ZM25.5 8.5C32.3276 8.5 38.2117 12.5545 40.9147 18.377C40.2583 18.0663 39.623 17.7128 39.0129 17.3187C38.1437 16.7705 37.1578 16.1479 35.9104 15.6782C34.4888 15.1364 32.9354 14.875 31.1631 14.875C29.3909 14.875 27.8375 15.1364 26.4159 15.6761C25.1685 16.15 24.1825 16.7726 23.2879 17.3357C22.4846 17.8394 21.794 18.2771 20.944 18.598C19.9962 18.9571 18.9677 19.125 17.7012 19.125C16.4369 19.125 15.4084 18.9571 14.4628 18.598C13.6128 18.2771 12.9157 17.8373 12.1125 17.3273C11.7704 17.1126 11.39 16.8853 11.0075 16.6621C13.9974 11.7768 19.3651 8.5 25.5 8.5ZM25.5 42.5C16.1266 42.5 8.5 34.8734 8.5 25.5C8.5 23.7787 8.76138 22.1213 9.2395 20.5551C9.43925 20.6784 9.63263 20.7889 9.84088 20.9227C10.7143 21.4752 11.7024 22.1 12.9561 22.5717C14.3778 23.1136 15.929 23.375 17.7012 23.375C19.4714 23.375 21.0247 23.1136 22.4506 22.5739C23.698 22.1 24.684 21.4774 25.5786 20.9143C26.3819 20.4106 27.0725 19.9729 27.9225 19.6499C28.8681 19.2929 29.8966 19.125 31.1631 19.125C32.4296 19.125 33.4581 19.2929 34.4038 19.652C35.2516 19.9708 35.9444 20.4085 36.771 20.9313C37.6401 21.4795 38.6261 22.1021 39.8735 22.5739C40.6449 22.8671 41.463 23.0605 42.3236 23.1922C42.4277 23.9509 42.5 24.7159 42.5 25.5C42.5 34.8734 34.8734 42.5 25.5 42.5V42.5Z" fill="#EA2D5C"/>
<path d="M18.0625 31.875C19.8229 31.875 21.25 30.4479 21.25 28.6875C21.25 26.9271 19.8229 25.5 18.0625 25.5C16.3021 25.5 14.875 26.9271 14.875 28.6875C14.875 30.4479 16.3021 31.875 18.0625 31.875Z" fill="#EA2D5C"/>
<path d="M32.9375 31.875C34.6979 31.875 36.125 30.4479 36.125 28.6875C36.125 26.9271 34.6979 25.5 32.9375 25.5C31.1771 25.5 29.75 26.9271 29.75 28.6875C29.75 30.4479 31.1771 31.875 32.9375 31.875Z" fill="#EA2D5C"/>
</svg>
